<?xml version="1.0" standalone="no"?>
<!DOCTYPE svg PUBLIC "-//W3C//DTD SVG 20010904//EN"
 "http://www.w3.org/TR/2001/REC-SVG-20010904/DTD/svg10.dtd">
<svg version="1.0" xmlns="http://www.w3.org/2000/svg"
 width="1212.000000pt" height="1280.000000pt" viewBox="0 0 1212.000000 1280.000000"
 preserveAspectRatio="xMidYMid meet">
<metadata>
Created by potrace 1.15, written by Peter Selinger 2001-2017
</metadata>
<g transform="translate(0.000000,1280.000000) scale(0.100000,-0.100000)"
fill="#cddc39" stroke="none">
<path d="M3 6938 l2 -5863 27 -105 c126 -504 461 -836 898 -890 57 -7 1287
-10 3855 -10 l3771 0 261 262 c144 145 930 938 1747 1763 l1485 1500 0 4596 0
4596 -1417 6 c-779 4 -3490 7 -6025 7 l-4607 0 3 -5862z m11527 -73 l0 -2765
-1135 0 -1135 0 0 2100 0 2100 -449 0 -449 0 -65 -77 c-79 -96 -235 -246 -342
-332 -291 -234 -697 -425 -1137 -536 l-133 -33 -3 -356 -2 -356 179 0 c200 0
395 -13 515 -35 148 -27 264 -103 307 -200 43 -97 43 -91 48 -2178 l6 -1998
160 -2 160 -2 3 -803 2 -802 -3563 2 -3563 3 -79 39 c-187 92 -308 294 -335
557 -7 68 -10 1457 -10 4270 l0 4169 5510 0 5510 0 0 -2765z m-305 -3367 c-50
-51 -309 -313 -576 -583 -267 -269 -843 -851 -1279 -1292 -436 -442 -795 -803
-797 -803 -2 0 -3 3 -3 6 0 7 1286 1311 2091 2119 324 325 597 602 609 618 12
15 27 27 33 27 6 0 -29 -42 -78 -92z"/>
<path d="M3980 8413 c-478 -34 -809 -134 -1037 -315 -163 -129 -279 -350 -338
-642 -36 -182 -45 -317 -45 -698 l0 -348 759 0 759 0 5 393 c5 407 12 476 54
564 51 108 248 145 364 69 50 -33 94 -126 110 -231 18 -110 17 -741 0 -850
-35 -219 -102 -322 -235 -360 -73 -21 -237 -35 -401 -35 -78 0 -170 -3 -204
-6 l-61 -7 0 -438 0 -439 23 0 c85 0 378 -23 454 -35 129 -21 193 -47 258
-107 135 -123 170 -261 181 -698 7 -266 -9 -827 -26 -940 -15 -103 -37 -163
-72 -199 -56 -57 -82 -66 -193 -66 -113 0 -146 12 -190 69 -53 70 -57 126 -62
859 l-5 667 -759 0 -759 0 0 -397 c0 -646 31 -1000 111 -1265 93 -305 388
-590 771 -742 144 -57 375 -106 597 -126 162 -15 522 -13 681 4 647 70 1077
346 1265 812 130 321 185 840 156 1459 -33 703 -110 934 -379 1134 -65 47
-242 141 -268 141 -36 0 -15 22 65 69 173 103 314 233 393 362 91 150 138 400
138 739 0 535 -151 960 -436 1229 -227 214 -593 335 -1119 371 -138 9 -448 11
-555 3z"/>
</g>
</svg>
